<svg width="80" height="72" viewBox="0 0 80 72" fill="none" xmlns="http://www.w3.org/2000/svg">
<path d="M15.2838 52.9658C10.9617 53.8913 10.6874 61.5995 7.98933 63.8134C5.29123 66.0273 1.3335 59.5734 1.3335 59.5734V70.8333H78.0602V42.3338C75.6489 44.5454 74.6037 55.1309 71.1053 58.0993C67.6068 61.0677 68.8497 44.2005 65.9289 35.8524C63.008 27.5043 60.7029 48.8592 57.1347 47.4247C53.5665 45.9903 52.9301 54.901 50.3254 53.185C47.7206 51.4689 46.1706 42.2143 43.1844 39.3849C40.1982 36.5556 39.0974 12.7353 36.2093 7.5279C33.3211 2.32048 32.1441 25.5913 29.2341 26.615C26.3242 27.6387 24.7112 10.1557 22.259 12.7353C19.8067 15.315 19.6059 52.0404 15.2838 52.9658Z" fill="url(#paint0_linear_6339_26046)"/>
<path d="M1.3335 59.5959C2.03478 60.6529 5.21964 65.9976 8.07509 63.6546C10.9305 61.3116 11.0058 52.9658 15.2838 52.9658C19.5619 52.9658 19.8068 15.315 22.259 12.7353C24.7112 10.1557 26.3242 27.6387 29.2341 26.615C32.1441 25.5913 33.3211 2.32048 36.2093 7.5279C39.0974 12.7353 40.1982 36.5556 43.1844 39.3849C46.1707 42.2143 47.4322 51.2498 50.0369 52.9658C52.6417 54.6818 52.901 47.4247 57.1347 47.4247C61.3684 47.4247 63.035 27.588 65.9558 35.9361C68.8767 44.2842 67.5865 61.156 71.085 58.1876C74.5835 55.2192 75.3538 45.1065 78.0602 42.4578" stroke="#5DC264" stroke-width="2" stroke-linecap="round" stroke-linejoin="round"/>
<defs>
<linearGradient id="paint0_linear_6339_26046" x1="39.6968" y1="6.76929" x2="39.6968" y2="70.8333" gradientUnits="userSpaceOnUse">
<stop stop-color="#F04438" stop-opacity="0.3"/>
<stop offset="0.0001" stop-color="#5DC264" stop-opacity="0.3"/>
<stop offset="1" stop-color="white" stop-opacity="0"/>
</linearGradient>
</defs>
</svg>
