<svg width="20" height="18" viewBox="0 0 20 18" fill="none" xmlns="http://www.w3.org/2000/svg">
<path d="M1.75016 2.58341L8.87461 8.12465C9.53664 8.63957 10.4637 8.63956 11.1257 8.12465L18.2502 2.58341M3.76683 16.3334H16.2335C17.2603 16.3334 17.7736 16.3334 18.1658 16.1336C18.5108 15.9578 18.7912 15.6774 18.967 15.3324C19.1668 14.9402 19.1668 14.4268 19.1668 13.4001V4.60008C19.1668 3.57332 19.1668 3.05994 18.967 2.66777C18.7912 2.3228 18.5108 2.04234 18.1658 1.86657C17.7736 1.66675 17.2603 1.66675 16.2335 1.66675H3.76683C2.74007 1.66675 2.22668 1.66675 1.83451 1.86657C1.48955 2.04234 1.20909 2.3228 1.03332 2.66777C0.833496 3.05994 0.833496 3.57332 0.833496 4.60008V13.4001C0.833496 14.4268 0.833496 14.9402 1.03332 15.3324C1.20909 15.6774 1.48955 15.9578 1.83451 16.1336C2.22668 16.3334 2.74007 16.3334 3.76683 16.3334Z" stroke="#5F6D7E" stroke-width="1.67"/>
</svg>
